<svg width="12" height="16" viewBox="0 0 12 16" fill="none" xmlns="http://www.w3.org/2000/svg">
<mask id="mask0_182_185" style="mask-type:alpha" maskUnits="userSpaceOnUse" x="4" y="3" width="8" height="12">
<path fill-rule="evenodd" clip-rule="evenodd" d="M4 3.9458H12V14.9458H4V3.9458Z" fill="white"/>
</mask>
<g mask="url(#mask0_182_185)">
<path fill-rule="evenodd" clip-rule="evenodd" d="M5.97896 5.16466C6.0514 5.16466 6.11279 5.16466 6.17418 5.16466C6.85192 5.16466 7.52976 5.1626 8.20751 5.16588C8.47195 5.16721 8.68455 5.28587 8.80754 5.5619C8.91669 5.80674 8.89651 6.05122 8.76526 6.27678C8.63229 6.50536 8.43074 6.596 8.19441 6.59624C7.61916 6.59697 7.04392 6.59648 6.46867 6.59648C6.40664 6.59648 6.3445 6.59648 6.25756 6.59648C6.30006 6.83684 6.33763 7.06021 6.37938 7.28261C6.43615 7.5846 6.50269 7.88465 6.55216 8.18822C6.57599 8.33357 6.62461 8.38477 6.76219 8.38332C7.58225 8.37495 8.40251 8.3872 9.22256 8.37604C9.65754 8.37009 9.94484 8.584 10.1172 9.0288C10.7135 10.5676 11.3145 12.1042 11.9113 13.6428C12.0714 14.0556 12.011 14.4548 11.7602 14.7094C11.5033 14.9701 11.1363 15.0202 10.8393 14.8346C10.6564 14.7202 10.5453 14.5399 10.4627 14.3275C9.95847 13.0323 9.44923 11.7396 8.94921 10.4423C8.89426 10.2999 8.82987 10.258 8.6969 10.259C7.76856 10.2658 6.84022 10.2627 5.91188 10.2625C5.24551 10.2624 4.93675 9.97845 4.79229 9.23579C4.53805 7.9293 4.2823 6.62305 4.02923 5.31633C3.93886 4.84969 4.05724 4.45294 4.39531 4.17169C4.73895 3.88584 5.1134 3.8731 5.48388 4.12316C5.72782 4.28768 5.86187 4.54309 5.92465 4.85029C5.94375 4.9442 5.95749 5.03957 5.97896 5.16466Z" fill="white"/>
</g>
<mask id="mask1_182_185" style="mask-type:alpha" maskUnits="userSpaceOnUse" x="0" y="6" width="9" height="10">
<path fill-rule="evenodd" clip-rule="evenodd" d="M0 6.9458H9V15.9458H0V6.9458Z" fill="white"/>
</mask>
<g mask="url(#mask1_182_185)">
<path fill-rule="evenodd" clip-rule="evenodd" d="M5.09398 15.9452C2.75277 15.9091 0.744713 14.4071 0.170913 12.184C-0.257546 10.5234 0.125638 9.00834 1.25213 7.68828C1.43762 7.47087 1.65252 7.27506 1.86888 7.08582C2.09367 6.88918 2.38094 6.90481 2.56362 7.10038C2.74704 7.29678 2.73227 7.59783 2.50553 7.79328C2.04876 8.18716 1.65996 8.62997 1.39881 9.17252C0.411806 11.2227 1.21357 13.709 3.45105 14.639C5.11058 15.3287 6.6399 15.0404 7.99191 13.87C8.07428 13.7988 8.15311 13.7213 8.24439 13.663C8.45661 13.5269 8.74742 13.57 8.89642 13.7497C9.05006 13.9353 9.03102 14.2055 8.85102 14.3912C7.89318 15.3795 6.47406 15.9665 5.09398 15.9452Z" fill="white"/>
</g>
<mask id="mask2_182_185" style="mask-type:alpha" maskUnits="userSpaceOnUse" x="3" y="0" width="3" height="3">
<path fill-rule="evenodd" clip-rule="evenodd" d="M3.02271 0H5.96198V2.94618H3.02271V0Z" fill="white"/>
</mask>
<g mask="url(#mask2_182_185)">
<path fill-rule="evenodd" clip-rule="evenodd" d="M5.96197 1.47676C5.9596 2.27789 5.2921 2.94626 4.4946 2.94626C3.69835 2.94626 3.02672 2.27664 3.02272 1.47864C3.0186 0.673136 3.69547 -0.00311421 4.5026 1.07875e-05C5.29972 0.00313579 5.96435 0.675761 5.96197 1.47676Z" fill="white"/>
</g>
</svg>
