<svg width="12" height="17" viewBox="0 0 12 17" fill="none" xmlns="http://www.w3.org/2000/svg">
<mask id="mask0_90_368" style="mask-type:alpha" maskUnits="userSpaceOnUse" x="4" y="4" width="8" height="12">
<path fill-rule="evenodd" clip-rule="evenodd" d="M4 4.50049H12V15.5005H4V4.50049Z" fill="white"/>
</mask>
<g mask="url(#mask0_90_368)">
<path fill-rule="evenodd" clip-rule="evenodd" d="M5.97896 5.71935C6.0514 5.71935 6.11279 5.71935 6.17418 5.71935C6.85192 5.71935 7.52976 5.71729 8.20751 5.72056C8.47195 5.7219 8.68455 5.84056 8.80754 6.11659C8.91669 6.36143 8.89651 6.60591 8.76526 6.83147C8.63229 7.06005 8.43074 7.15069 8.19441 7.15093C7.61916 7.15166 7.04392 7.15117 6.46867 7.15117C6.40664 7.15117 6.3445 7.15117 6.25756 7.15117C6.30006 7.39153 6.33763 7.6149 6.37938 7.8373C6.43615 8.13929 6.50269 8.43934 6.55216 8.74291C6.57599 8.88826 6.62461 8.93946 6.76219 8.93801C7.58225 8.92963 8.40251 8.94189 9.22256 8.93073C9.65754 8.92478 9.94484 9.13869 10.1172 9.58348C10.7135 11.1223 11.3145 12.6588 11.9113 14.1974C12.0714 14.6103 12.011 15.0095 11.7602 15.2641C11.5033 15.5248 11.1363 15.5749 10.8393 15.3893C10.6564 15.2749 10.5453 15.0946 10.4627 14.8822C9.95847 13.587 9.44923 12.2943 8.94921 10.997C8.89426 10.8545 8.82987 10.8127 8.6969 10.8137C7.76856 10.8204 6.84022 10.8174 5.91188 10.8172C5.24551 10.8171 4.93675 10.5331 4.79229 9.79047C4.53805 8.48399 4.2823 7.17774 4.02923 5.87101C3.93886 5.40438 4.05724 5.00762 4.39531 4.72638C4.73895 4.44053 5.1134 4.42779 5.48388 4.67785C5.72782 4.84237 5.86187 5.09777 5.92465 5.40498C5.94375 5.49889 5.95749 5.59426 5.97896 5.71935Z" fill="#0F4152"/>
</g>
<mask id="mask1_90_368" style="mask-type:alpha" maskUnits="userSpaceOnUse" x="0" y="7" width="9" height="10">
<path fill-rule="evenodd" clip-rule="evenodd" d="M0 7.50049H9V16.5005H0V7.50049Z" fill="white"/>
</mask>
<g mask="url(#mask1_90_368)">
<path fill-rule="evenodd" clip-rule="evenodd" d="M5.09398 16.4999C2.75277 16.4638 0.744713 14.9618 0.170913 12.7387C-0.257546 11.0781 0.125638 9.56302 1.25213 8.24296C1.43762 8.02556 1.65252 7.82975 1.86888 7.64051C2.09367 7.44386 2.38094 7.4595 2.56362 7.65506C2.74704 7.85147 2.73227 8.15252 2.50553 8.34797C2.04876 8.74185 1.65996 9.18465 1.39881 9.72721C0.411806 11.7774 1.21357 14.2637 3.45105 15.1937C5.11058 15.8834 6.6399 15.5951 7.99191 14.4247C8.07428 14.3534 8.15311 14.276 8.24439 14.2177C8.45661 14.0816 8.74742 14.1247 8.89642 14.3044C9.05006 14.49 9.03102 14.7602 8.85102 14.9459C7.89318 15.9342 6.47406 16.5212 5.09398 16.4999Z" fill="#0F4152"/>
</g>
<mask id="mask2_90_368" style="mask-type:alpha" maskUnits="userSpaceOnUse" x="3" y="0" width="3" height="4">
<path fill-rule="evenodd" clip-rule="evenodd" d="M3.02246 0.554688H5.96174V3.50086H3.02246V0.554688Z" fill="white"/>
</mask>
<g mask="url(#mask2_90_368)">
<path fill-rule="evenodd" clip-rule="evenodd" d="M5.96173 2.03145C5.95935 2.83257 5.29185 3.50095 4.49435 3.50095C3.6981 3.50095 3.02648 2.83132 3.02248 2.03332C3.01835 1.22782 3.69523 0.551573 4.50235 0.554698C5.29948 0.557823 5.9641 1.23045 5.96173 2.03145Z" fill="#0F4152"/>
</g>
</svg>
