<svg width="32" height="31" viewBox="0 0 32 31" fill="none" xmlns="http://www.w3.org/2000/svg">
<path fill-rule="evenodd" clip-rule="evenodd" d="M21 12C21 14.7614 18.7614 17 16 17C13.2386 17 11 14.7614 11 12C11 9.23862 13.2386 7 16 7C18.7614 7 21 9.23862 21 12Z" fill="white"/>
<path fill-rule="evenodd" clip-rule="evenodd" d="M26.5 25.9166C24.861 21.8682 20.7779 19 16 19C11.2221 19 7.13904 21.8682 5.5 25.9166C8.22197 28.4449 11.9226 30 16 30C20.0775 30 23.778 28.4449 26.5 25.9166Z" fill="white"/>
<path fill-rule="evenodd" clip-rule="evenodd" d="M30.5 15.5C30.5 23.5082 24.0081 30 16 30C7.99191 30 1.5 23.5082 1.5 15.5C1.5 7.49184 7.99191 1 16 1C24.0081 1 30.5 7.49184 30.5 15.5Z" stroke="white" stroke-width="2"/>
</svg>
