<svg width="53" height="37" viewBox="0 0 53 37" fill="none" xmlns="http://www.w3.org/2000/svg">
<path fill-rule="evenodd" clip-rule="evenodd" d="M1 18.5C1 8.83502 8.83502 1 18.5 1H34.5C44.165 1 52 8.83502 52 18.5C52 28.165 44.165 36 34.5 36H18.5C8.83502 36 1 28.165 1 18.5Z" fill="white" stroke="#1D9DA2"/>
<mask id="mask0_0_1" style="mask-type:alpha" maskUnits="userSpaceOnUse" x="15" y="11" width="24" height="16">
<path fill-rule="evenodd" clip-rule="evenodd" d="M15 11H39V27H15V11Z" fill="white"/>
</mask>
<g mask="url(#mask0_0_1)">
<path fill-rule="evenodd" clip-rule="evenodd" d="M38.5495 17.9019C38.5023 17.9013 38.4516 17.9011 38.3934 17.9011C33.2624 17.9008 24.6342 17.9009 19.5032 17.9009H19.0141C19.0022 17.8603 18.9905 17.8196 18.9787 17.7789C20.649 16.0204 22.3194 14.2617 23.9298 12.5661C23.4253 12.0203 22.9597 11.5167 22.4822 11C22.3952 11.0843 22.2971 11.1727 22.206 11.2685C19.8741 13.7229 17.5488 16.184 15.2045 18.6253C14.9038 18.9381 14.9554 19.1021 15.2244 19.3829C17.5451 21.8061 19.8524 24.2432 22.1644 26.6755C22.2746 26.7913 22.3912 26.9004 22.492 27C22.9821 26.4667 23.4473 25.9607 24.0013 25.358C22.3414 23.6889 20.6397 21.9778 18.938 20.2667C18.9684 20.2074 18.9989 20.1481 19.0293 20.0888H19.5333C23.9955 20.0888 31.9552 20.0888 36.4176 20.0888C36.5948 20.0888 36.7719 20.0881 36.9491 20.0874V25.6329H39V17.9019H38.5495Z" fill="#0F4152"/>
</g>
</svg>
