<svg width="13" height="13" viewBox="0 0 13 13" fill="none" xmlns="http://www.w3.org/2000/svg">
<mask id="mask0_182_179" style="mask-type:alpha" maskUnits="userSpaceOnUse" x="0" y="0" width="13" height="13">
<path fill-rule="evenodd" clip-rule="evenodd" d="M0 0H13V13H0V0Z" fill="white"/>
</mask>
<g mask="url(#mask0_182_179)">
<path fill-rule="evenodd" clip-rule="evenodd" d="M9.38551 5.24994C9.40814 2.97484 7.55587 1.11029 5.25222 1.08928C2.96463 1.0685 1.10334 2.90524 1.07956 5.20693C1.05586 7.50128 2.89086 9.36041 5.20865 9.39036C7.48874 9.41978 9.3625 7.56241 9.38551 5.24994ZM8.55502 9.3031C5.77714 11.512 2.29912 10.2764 0.90854 8.2028C-0.444733 6.18474 -0.324169 3.39296 1.52612 1.5414C3.43428 -0.368157 6.43256 -0.513183 8.50624 1.1605C9.63169 2.06885 10.2793 3.25703 10.437 4.69215C10.5941 6.12338 10.1759 7.40118 9.28582 8.56154C9.35287 8.61579 9.41701 8.65889 9.47075 8.71253C10.5773 9.81665 11.6836 10.9211 12.7878 12.0276C13.063 12.3034 13.0693 12.6251 12.8138 12.8613C12.6207 13.0397 12.3202 13.0473 12.1176 12.8766C12.0594 12.8275 12.0054 12.7732 11.9515 12.7195C10.8624 11.6338 9.77343 10.548 8.68544 9.46127C8.63644 9.41229 8.59668 9.35406 8.55502 9.3031Z" fill="white"/>
</g>
</svg>
