<svg width="24" height="24" viewBox="0 0 24 24" fill="none" xmlns="http://www.w3.org/2000/svg">
<g clip-path="url(#clip0_9_914)">
<path fill-rule="evenodd" clip-rule="evenodd" d="M24 12C24 5.37258 18.6274 0 12 0C5.37258 0 0 5.37258 0 12C0 18.6274 5.37258 24 12 24C18.6274 24 24 18.6274 24 12Z" fill="#ECEEF4" stroke="#CDCFD6"/>
<mask id="mask0_9_914" style="mask-type:alpha" maskUnits="userSpaceOnUse" x="6" y="6" width="9" height="12">
<path fill-rule="evenodd" clip-rule="evenodd" d="M6 6.04102H14.2707V17.8179H6V6.04102Z" fill="white"/>
</mask>
<g mask="url(#mask0_9_914)">
<path fill-rule="evenodd" clip-rule="evenodd" d="M14.27 11.9222C14.27 13.5375 14.2732 15.1528 14.266 16.7681C14.2651 16.9733 14.2401 17.1883 14.1732 17.3812C14.0425 17.7576 13.7039 17.9064 13.3229 17.7657C13.143 17.6992 12.9688 17.6022 12.8141 17.49C11.7726 16.7342 10.7378 15.9696 9.69751 15.2121C9.63681 15.1679 9.54743 15.1407 9.47118 15.1402C8.67024 15.1351 7.86924 15.1386 7.06824 15.1365C6.53615 15.1351 6.16237 14.873 6.03783 14.4104C6.00989 14.3067 6.00212 14.1953 6.00195 14.0874C5.99971 12.6627 5.99943 11.2379 6.00094 9.81323C6.00156 9.27019 6.25013 8.93046 6.74789 8.79986C6.86265 8.7698 6.98691 8.76463 7.10686 8.76414C7.86594 8.76109 8.62507 8.76566 9.38404 8.75864C9.47767 8.75776 9.58689 8.72411 9.66157 8.66992C10.6994 7.9166 11.7298 7.15343 12.7693 6.40241C12.9532 6.26952 13.1597 6.14889 13.3751 6.0789C13.7325 5.96279 14.0377 6.11986 14.1702 6.46368C14.2263 6.60931 14.2622 6.77166 14.2631 6.92665C14.2709 8.32866 14.2691 9.73067 14.27 11.1327C14.2701 11.3959 14.27 11.659 14.27 11.9222Z" fill="#0F4152"/>
</g>
<path fill-rule="evenodd" clip-rule="evenodd" d="M17.8182 15.792C17.8111 16.4102 17.3554 16.8052 16.9612 16.5648C16.5338 16.3041 16.12 16.0047 15.7163 15.6904C15.4352 15.4715 15.3789 14.9902 15.5555 14.6404C15.7316 14.2916 16.0768 14.1668 16.3792 14.3707C16.7671 14.6322 17.1481 14.9101 17.5262 15.193C17.7227 15.3402 17.8185 15.572 17.8182 15.792Z" fill="#0F4152"/>
<path fill-rule="evenodd" clip-rule="evenodd" d="M15.4916 8.9618C15.404 8.62979 15.4707 8.3139 15.7028 8.13746C16.1071 7.83021 16.5178 7.53386 16.9366 7.25764C17.2096 7.07762 17.5555 7.23161 17.7297 7.57005C17.8866 7.87483 17.8296 8.31758 17.6012 8.55155C17.5548 8.59907 17.5038 8.64133 17.4514 8.67852C17.1139 8.91834 16.7779 9.16163 16.4358 9.39112C16.3291 9.46267 16.205 9.49502 16.0889 9.54528C15.817 9.51825 15.5795 9.29461 15.4916 8.9618Z" fill="#0F4152"/>
<path fill-rule="evenodd" clip-rule="evenodd" d="M17.227 10.7343C17.5344 10.7343 17.8419 10.7281 18.1491 10.7357C18.6194 10.7473 18.9834 11.1601 18.9995 11.6888C19.0158 12.2283 18.6779 12.693 18.2023 12.7095C17.533 12.7326 16.8614 12.7354 16.1929 12.6979C15.6073 12.665 15.2733 11.8539 15.5577 11.2303C15.6955 10.928 15.9169 10.7529 16.2146 10.7363C16.5513 10.7173 16.8894 10.7319 17.227 10.7319C17.227 10.7327 17.227 10.7335 17.227 10.7343Z" fill="#0F4152"/>
</g>
<defs>
<clipPath id="clip0_9_914">
<rect width="24" height="24" fill="white"/>
</clipPath>
</defs>
</svg>
